<svg width="1634" height="982" viewBox="0 0 1634 982" fill="none" xmlns="http://www.w3.org/2000/svg">
<g clip-path="url(#clip0_401_2)">
<path d="M917.4 2.86664C951.4 10.8666 979.933 43.6666 979.933 74.8666V82.4666L987.4 83.4C1022.87 87.8 1051.13 111.8 1059.53 144.6L1061.93 154.067L1062.33 119.4C1062.73 81.2666 1061.53 66.8666 1056.6 53.9333C1047.27 29.2666 1023.53 8.86664 997.8 3.39998C990.867 1.93331 979.133 1.53331 950.6 1.53331C926.6 1.66664 914.333 2.06664 917.4 2.86664Z" fill="#0A939688"/>
<path d="M1093.27 3.53333C1056.47 13.6667 1052.07 62.3333 1086.6 78.4667C1092.33 81.1333 1096.07 81.9333 1103.4 81.9333C1114.6 81.9333 1122.87 78.4667 1131.27 70.0667C1137.4 63.9333 1139.4 60.6 1141.93 51.4C1143.67 44.8667 1143.67 45.2667 1143.8 63.6667L1143.93 82.7333H1147.67C1154.2 82.7333 1169.4 78.8667 1177 75.4C1186.73 71 1199.13 61.4 1206.2 53C1213.27 44.6 1220.6 29.9333 1223.13 18.8667C1224.2 14.3333 1225.53 10.0667 1225.93 9.66666C1226.33 9.13333 1226.6 21.2667 1226.47 36.4667C1226.33 51.6667 1226.6 64.4667 1227.13 65C1227.53 65.4 1227.93 64.3333 1227.93 62.6C1228.07 53.2667 1241.27 31.6667 1253.27 21.1333C1261.13 14.2 1276.33 6.2 1286.6 3.53333C1293.27 1.8 1286.87 1.53333 1219 1.53333L1143.93 1.4L1143.8 20.3333C1143.67 34.6 1143.4 38.0667 1142.47 34.3333C1139.53 21.8 1131.4 11.9333 1119.4 6.2C1110.33 1.8 1102.33 0.999999 1093.27 3.53333Z" fill="#0A939688"/>
<path d="M1306.6 41.9333V82.7333L1343.67 82.8667C1363.93 83 1379.13 83.4 1377.27 83.6667C1369.4 85 1355.93 90.0667 1347.8 94.8667C1327.27 106.867 1312.33 128.733 1308.2 152.733L1307.13 159.4L1306.07 152.2C1303.67 134.333 1291.13 112.6 1277 101.267C1273.13 98.2 1265.8 93.6667 1260.6 91.2667C1245.4 84.0667 1237.4 83.1333 1197.27 83.9333C1164.6 84.7333 1162.47 84.8667 1168.6 86.4667C1186.33 91.2667 1207.27 108.6 1216.2 126.067C1221.53 136.6 1225.27 149.933 1225.27 158.867V164.733L1264.73 164.467C1286.47 164.333 1305.13 164.6 1306.07 165C1307.67 165.533 1307.93 172.6 1307.67 205.933L1307.27 246.067L1266.6 246.467L1225.8 246.733L1224.2 236.067C1221.13 217.133 1212.6 200.333 1199.8 188.067C1191.8 180.467 1191 179.8 1185.27 176.6C1182.73 175.267 1180.33 173.8 1179.93 173.4C1177.13 170.6 1157.8 165.4 1150.33 165.4H1143.93V124.867C1143.93 78.2 1145.27 81.8 1129.67 84.7333C1095 91.4 1069 117.8 1063.8 151.8C1062.87 157.8 1062.47 163 1062.73 163.267C1063.13 163.667 1067.53 164.6 1072.6 165.4C1104.33 170.333 1128.87 190.6 1139.53 221L1143.27 231.4L1143.67 279L1144.07 326.733H1150.33C1172.73 326.6 1200.87 309 1213.67 287C1218.87 278.067 1223.93 264.467 1224.07 258.867C1224.07 257 1224.6 254.2 1225.27 252.733C1226.2 250.467 1226.47 250.6 1226.47 254.067C1226.87 267.8 1235.67 287.4 1247.27 299.933C1260.6 314.333 1275.8 322.6 1295.27 326.067L1304.6 327.667L1294.6 329.4C1284.87 331 1279 333 1266.87 339.133C1261.53 341.667 1246.2 355.533 1241.27 362.067C1233.67 372.067 1226.6 391.933 1226.6 402.867C1226.6 409.4 1226.6 409.4 1222.33 409.4C1219.93 409.4 1213.8 410.333 1208.6 411.4C1178.73 417.667 1152.47 443.667 1146.07 473.4C1144.33 481.267 1144.07 476.6 1143.93 418.733C1143.8 383.933 1143.8 349.267 1143.93 341.667L1144.2 328.067H1097.8C1045.8 328.067 1041.13 328.6 1024.6 337.267C1004.07 347.933 988.467 368.067 982.733 391.667L980.067 402.067L980.333 324.067L980.6 246.067L1021.27 245.4L1061.93 244.733L1062.2 204.867L1062.6 165L1052.87 165.8C1042.07 166.733 1027.4 172.067 1018.2 178.333C1009.13 184.467 995.4 199.4 990.733 208.067C988.333 212.467 985 221.667 983.4 228.467L980.333 240.733L979.4 233.8C976.6 212.733 963.133 191.533 944.467 178.6C936.6 173.267 928.733 169.8 917 166.867L907.267 164.333L943.667 164.2L979.933 164.067V124.2V84.3333L936.333 83.8C890.2 83.2667 881.533 84.0667 868.067 89.2667C841.8 99.8 821.667 126.733 817.933 157L817 164.067H857.8H898.6V196.333C898.6 214.2 898.867 241 899.267 256.067L900.067 283.4L896.867 275.267C895.133 270.867 892.2 265.133 890.2 262.467C875.8 243.667 847.267 241.4 830.333 257.933C819.4 268.6 815.4 282.6 819.267 296.867C825.8 321 851.533 333.8 873.4 323.8C886.867 317.667 893.933 309 898.333 293.4C899.267 290.2 899.4 308.6 898.867 349L898.2 409.4H939.667H981.267V414.467C981.267 426.333 990.067 449 998.467 458.733C1010.87 473.133 1020.87 480.333 1035.27 485.267C1043.53 488.067 1059.8 490.867 1061.67 489.8C1062.2 489.4 1062.73 471.933 1062.6 451C1062.47 429.933 1062.47 411.933 1062.47 410.867C1062.6 409.4 1064.2 409.133 1070.47 409.8C1094.2 412.333 1117.4 426.733 1130.73 447.267C1137.27 457.267 1140.73 466.467 1142.87 479.933L1144.47 490.733H1187.4C1234.87 490.733 1244.07 489.8 1258.73 483C1281.93 472.333 1300.6 449.4 1305.13 425.4C1305.93 421.267 1306.33 430.867 1306.47 455L1306.6 490.733H1388.73H1470.87L1470.33 434.733C1469.93 404.067 1470.07 378.2 1470.6 377.533C1471 376.733 1472.07 378.733 1473 381.933C1475.13 389.933 1485.8 401.533 1494.87 405.533C1504.47 409.667 1518.07 409.8 1527.27 405.533C1535.67 401.8 1543.13 394.733 1547.67 386.067C1550.6 380.467 1551.27 377.667 1551.27 368.733C1551.27 359.667 1550.73 356.867 1547.53 350.467C1541.67 338.467 1530.07 330.2 1516.07 328.067C1505.4 326.333 1489.53 331.8 1482.47 339.667C1476.73 346.067 1475.67 347.8 1472.6 356.2L1469.67 364.467L1469.53 341C1469.53 316.867 1469.13 313 1465.8 302.867C1457.13 276.467 1439 259.133 1409.93 249.133L1399.27 245.533L1475.67 246.333L1551.93 247.133V242.6C1551.8 234.067 1547.93 219.4 1543.13 209.4C1536.73 196.2 1520.6 180.067 1507.8 173.8C1490.87 165.533 1487.67 165.133 1441 165.4C1411.8 165.533 1398.6 165.133 1398.6 164.2C1398.6 163.4 1400.07 162.733 1401.8 162.733C1412.2 162.733 1434.07 151.533 1445.67 140.467C1456.07 130.333 1464.07 115.933 1467.93 100.333L1470.47 90.0667L1470.6 122.733C1470.87 154.2 1470.87 155.133 1472.73 146.733C1473.67 141.933 1476.73 133.533 1479.53 128.067C1485.93 114.867 1502.07 98.4667 1514.6 92.3333C1530.33 84.7333 1535.67 83.6667 1563.27 83.2667C1587.8 82.7334 1588.33 82.8667 1582.07 84.8667C1563.67 90.7333 1552.87 104.733 1552.73 123.4C1552.47 139.133 1561.27 153.133 1575.8 160.333C1580.73 162.733 1584.2 163.4 1593.27 163.4C1603.27 163.4 1605.4 162.867 1611.8 159.4C1625.8 151.667 1634.2 136.467 1633 120.867C1631.67 104.467 1620.47 90.4667 1604.73 85.4L1596.6 82.8667H1615L1633.27 82.7333V42.0667V1.39999H1591C1544.2 1.53333 1534.73 2.46666 1519.67 9C1495 19.6667 1476.07 44.3334 1471.8 71.4C1470.87 77.2667 1469.53 82.4667 1468.73 83C1467.93 83.6667 1449.67 84.0667 1428.33 83.9333H1389.27V80.6C1389.27 78.7333 1388.33 72.6 1387.13 67C1379.93 31.8 1350.87 5.13335 1315.93 1.93335L1306.6 0.999999V41.9333ZM1390.2 338.6C1394.2 365.267 1411.27 388.867 1434.47 399.667C1445.13 404.733 1445.93 405 1458.6 407.4L1467.27 409L1460.6 410.067C1448.6 411.933 1436.73 416.333 1427.53 422.2C1415.4 430.067 1410.07 435.133 1403.27 445.4C1396.47 455.667 1392.73 464.467 1390.47 476.2L1388.73 484.733L1387.13 475.933C1380.6 440.6 1351.93 414.2 1315.27 409.667L1307.27 408.733L1306.87 368.333L1306.6 328.067H1347.67H1388.73L1390.2 338.6Z" fill="#0A939688"/>
<path d="M1409 4.06665C1423.13 7.79998 1435.8 15 1445.53 24.7333C1455.93 35.2666 1462.2 45.4 1466.87 59.2666L1470.47 70.0667V35.6666L1470.6 1.39998L1435 1.53331H1399.27L1409 4.06665Z" fill="#0A939688"/>
<path d="M1620.6 247.533C1603.53 251.133 1589.13 258.467 1578.2 269.133C1535.67 310.467 1547.8 378.2 1602.07 402.2C1606.07 403.933 1613.27 406.2 1618.2 407.133C1626.33 408.6 1624.33 408.733 1589.8 409.4L1552.6 410.067L1552.33 450.333C1552.07 481.4 1552.33 490.733 1553.67 490.733C1558.47 490.6 1575.93 486.733 1580.6 484.867C1606.2 474.2 1623.93 454.067 1630.47 428.2C1633.13 417.267 1633.27 413.933 1633.27 331.8V246.733L1628.33 246.867C1625.53 247 1622.07 247.267 1620.6 247.533Z" fill="#0A939688"/>
<path d="M817.4 415.667L817.267 490.733H857.933H898.6L898.333 449.933L897.933 409.133L891.267 408.6C879.8 407.667 871.8 405.533 861.4 400.467C841.8 390.867 825.133 370.2 819.4 348.067C817.667 341.4 817.4 347.667 817.4 415.667Z" fill="#0A939688"/>
<path d="M977.933 430.867C976.2 440.867 966.733 457.4 957 466.867C947.4 476.333 931.933 485.4 919.533 488.733C913.133 490.467 914.867 490.6 946.333 490.6L979.933 490.733V458.067C979.933 440.067 979.667 425.4 979.4 425.4C979.133 425.4 978.467 427.8 977.933 430.867Z" fill="#0A939688"/>
<path d="M101.4 1.86658C135.4 9.86658 163.933 42.6666 163.933 73.8666V81.4666L171.4 82.3999C206.867 86.7999 235.133 110.8 243.533 143.6L245.933 153.067L246.333 118.4C246.733 80.2666 245.533 65.8666 240.6 52.9333C231.267 28.2666 207.533 7.86658 181.8 2.39991C174.867 0.933248 163.133 0.533248 134.6 0.533248C110.6 0.666581 98.3333 1.06658 101.4 1.86658Z" fill="#0A939688"/>
<path d="M277.267 2.53327C240.467 12.6666 236.067 61.3333 270.6 77.4666C276.333 80.1333 280.067 80.9333 287.4 80.9333C298.6 80.9333 306.867 77.4666 315.267 69.0666C321.4 62.9333 323.4 59.5999 325.933 50.3999C327.667 43.8666 327.667 44.2666 327.8 62.6666L327.933 81.7333H331.667C338.2 81.7333 353.4 77.8666 361 74.3999C370.733 69.9999 383.133 60.3999 390.2 51.9999C397.267 43.5999 404.6 28.9333 407.133 17.8666C408.2 13.3333 409.533 9.06661 409.933 8.66661C410.333 8.13327 410.6 20.2666 410.467 35.4666C410.333 50.6666 410.6 63.4666 411.133 63.9999C411.533 64.3999 411.933 63.3333 411.933 61.5999C412.067 52.2666 425.267 30.6666 437.267 20.1333C445.133 13.1999 460.333 5.19994 470.6 2.53327C477.267 0.799939 470.867 0.533272 403 0.533272L327.933 0.399939L327.8 19.3333C327.667 33.5999 327.4 37.0666 326.467 33.3333C323.533 20.7999 315.4 10.9333 303.4 5.19994C294.333 0.799939 286.333 -6.12289e-05 277.267 2.53327Z" fill="#0A939688"/>
<path d="M490.6 40.9333V81.7333L527.667 81.8667C547.933 82 563.133 82.4 561.267 82.6667C553.4 84 539.933 89.0667 531.8 93.8667C511.267 105.867 496.333 127.733 492.2 151.733L491.133 158.4L490.067 151.2C487.667 133.333 475.133 111.6 461 100.267C457.133 97.2 449.8 92.6667 444.6 90.2667C429.4 83.0667 421.4 82.1333 381.267 82.9333C348.6 83.7333 346.467 83.8667 352.6 85.4667C370.333 90.2667 391.267 107.6 400.2 125.067C405.533 135.6 409.267 148.933 409.267 157.867V163.733L448.733 163.467C470.467 163.333 489.133 163.6 490.067 164C491.667 164.533 491.933 171.6 491.667 204.933L491.267 245.067L450.6 245.467L409.8 245.733L408.2 235.067C405.133 216.133 396.6 199.333 383.8 187.067C375.8 179.467 375 178.8 369.267 175.6C366.733 174.267 364.333 172.8 363.933 172.4C361.133 169.6 341.8 164.4 334.333 164.4H327.933V123.867C327.933 77.2 329.267 80.8 313.667 83.7333C279 90.4 253 116.8 247.8 150.8C246.867 156.8 246.467 162 246.733 162.267C247.133 162.667 251.533 163.6 256.6 164.4C288.333 169.333 312.867 189.6 323.533 220L327.267 230.4L327.667 278L328.067 325.733H334.333C356.733 325.6 384.867 308 397.667 286C402.867 277.067 407.933 263.467 408.067 257.867C408.067 256 408.6 253.2 409.267 251.733C410.2 249.467 410.467 249.6 410.467 253.067C410.867 266.8 419.667 286.4 431.267 298.933C444.6 313.333 459.8 321.6 479.267 325.067L488.6 326.667L478.6 328.4C468.867 330 463 332 450.867 338.133C445.533 340.667 430.2 354.533 425.267 361.067C417.667 371.067 410.6 390.933 410.6 401.867C410.6 408.4 410.6 408.4 406.333 408.4C403.933 408.4 397.8 409.333 392.6 410.4C362.733 416.667 336.467 442.667 330.067 472.4C328.333 480.267 328.067 475.6 327.933 417.733C327.8 382.933 327.8 348.267 327.933 340.667L328.2 327.067H281.8C229.8 327.067 225.133 327.6 208.6 336.267C188.067 346.933 172.467 367.067 166.733 390.667L164.067 401.067L164.333 323.067L164.6 245.067L205.267 244.4L245.933 243.733L246.2 203.867L246.6 164L236.867 164.8C226.067 165.733 211.4 171.067 202.2 177.333C193.133 183.467 179.4 198.4 174.733 207.067C172.333 211.467 169 220.667 167.4 227.467L164.333 239.733L163.4 232.8C160.6 211.733 147.133 190.533 128.467 177.6C120.6 172.267 112.733 168.8 101 165.867L91.2667 163.333L127.667 163.2L163.933 163.067V123.2V83.3333L120.333 82.8C74.2 82.2667 65.5333 83.0667 52.0667 88.2667C25.8 98.8 5.66667 125.733 1.93333 156L1 163.067H41.8H82.6V195.333C82.6 213.2 82.8667 240 83.2667 255.067L84.0667 282.4L80.8667 274.267C79.1333 269.867 76.2 264.133 74.2 261.467C59.8 242.667 31.2667 240.4 14.3333 256.933C3.4 267.6 -0.6 281.6 3.26667 295.867C9.8 320 35.5333 332.8 57.4 322.8C70.8667 316.667 77.9333 308 82.3333 292.4C83.2667 289.2 83.4 307.6 82.8667 348L82.2 408.4H123.667H165.267V413.467C165.267 425.333 174.067 448 182.467 457.733C194.867 472.133 204.867 479.333 219.267 484.267C227.533 487.067 243.8 489.867 245.667 488.8C246.2 488.4 246.733 470.933 246.6 450C246.467 428.933 246.467 410.933 246.467 409.867C246.6 408.4 248.2 408.133 254.467 408.8C278.2 411.333 301.4 425.733 314.733 446.267C321.267 456.267 324.733 465.467 326.867 478.933L328.467 489.733H371.4C418.867 489.733 428.067 488.8 442.733 482C465.933 471.333 484.6 448.4 489.133 424.4C489.933 420.267 490.333 429.867 490.467 454L490.6 489.733H572.733H654.867L654.333 433.733C653.933 403.067 654.067 377.2 654.6 376.533C655 375.733 656.067 377.733 657 380.933C659.133 388.933 669.8 400.533 678.867 404.533C688.467 408.667 702.067 408.8 711.267 404.533C719.667 400.8 727.133 393.733 731.667 385.067C734.6 379.467 735.267 376.667 735.267 367.733C735.267 358.667 734.733 355.867 731.533 349.467C725.667 337.467 714.067 329.2 700.067 327.067C689.4 325.333 673.533 330.8 666.467 338.667C660.733 345.067 659.667 346.8 656.6 355.2L653.667 363.467L653.533 340C653.533 315.867 653.133 312 649.8 301.867C641.133 275.467 623 258.133 593.933 248.133L583.267 244.533L659.667 245.333L735.933 246.133V241.6C735.8 233.067 731.933 218.4 727.133 208.4C720.733 195.2 704.6 179.067 691.8 172.8C674.867 164.533 671.667 164.133 625 164.4C595.8 164.533 582.6 164.133 582.6 163.2C582.6 162.4 584.067 161.733 585.8 161.733C596.2 161.733 618.067 150.533 629.667 139.467C640.067 129.333 648.067 114.933 651.933 99.3333L654.467 89.0667L654.6 121.733C654.867 153.2 654.867 154.133 656.733 145.733C657.667 140.933 660.733 132.533 663.533 127.067C669.933 113.867 686.067 97.4667 698.6 91.3333C714.333 83.7333 719.667 82.6667 747.267 82.2667C771.8 81.7334 772.333 81.8667 766.067 83.8667C747.667 89.7333 736.867 103.733 736.733 122.4C736.467 138.133 745.267 152.133 759.8 159.333C764.733 161.733 768.2 162.4 777.267 162.4C787.267 162.4 789.4 161.867 795.8 158.4C809.8 150.667 818.2 135.467 817 119.867C815.667 103.467 804.467 89.4667 788.733 84.4L780.6 81.8667H799L817.267 81.7333V41.0667V0.399993H775C728.2 0.533326 718.733 1.46666 703.667 8C679 18.6667 660.067 43.3334 655.8 70.4C654.867 76.2667 653.533 81.4667 652.733 82C651.933 82.6667 633.667 83.0667 612.333 82.9333H573.267V79.6C573.267 77.7333 572.333 71.6 571.133 66C563.933 30.8 534.867 4.13335 499.933 0.933348L490.6 -1.32719e-06V40.9333ZM574.2 337.6C578.2 364.267 595.267 387.867 618.467 398.667C629.133 403.733 629.933 404 642.6 406.4L651.267 408L644.6 409.067C632.6 410.933 620.733 415.333 611.533 421.2C599.4 429.067 594.067 434.133 587.267 444.4C580.467 454.667 576.733 463.467 574.467 475.2L572.733 483.733L571.133 474.933C564.6 439.6 535.933 413.2 499.267 408.667L491.267 407.733L490.867 367.333L490.6 327.067H531.667H572.733L574.2 337.6Z" fill="#0A939688"/>
<path d="M593 3.06659C607.133 6.79992 619.8 13.9999 629.533 23.7333C639.933 34.2666 646.2 44.3999 650.867 58.2666L654.467 69.0666V34.6666L654.6 0.399919L619 0.533252H583.267L593 3.06659Z" fill="#0A939688"/>
<path d="M804.6 246.533C787.533 250.133 773.133 257.467 762.2 268.133C719.667 309.467 731.8 377.2 786.067 401.2C790.067 402.933 797.267 405.2 802.2 406.133C810.333 407.6 808.333 407.733 773.8 408.4L736.6 409.067L736.333 449.333C736.067 480.4 736.333 489.733 737.667 489.733C742.467 489.6 759.933 485.733 764.6 483.867C790.2 473.2 807.933 453.067 814.467 427.2C817.133 416.267 817.267 412.933 817.267 330.8V245.733L812.333 245.867C809.533 246 806.067 246.267 804.6 246.533Z" fill="#0A939688"/>
<path d="M1.4 414.667L1.26666 489.733H41.9333H82.6L82.3333 448.933L81.9333 408.133L75.2667 407.6C63.8 406.667 55.8 404.533 45.4 399.467C25.8 389.867 9.13333 369.2 3.4 347.067C1.66666 340.4 1.4 346.667 1.4 414.667Z" fill="#0A939688"/>
<path d="M161.933 429.867C160.2 439.867 150.733 456.4 141 465.867C131.4 475.333 115.933 484.4 103.533 487.733C97.1334 489.467 98.8667 489.6 130.333 489.6L163.933 489.733V457.067C163.933 439.067 163.667 424.4 163.4 424.4C163.133 424.4 162.467 426.8 161.933 429.867Z" fill="#0A939688"/>
<path d="M100.4 492.867C134.4 500.867 162.933 533.667 162.933 564.867V572.467L170.4 573.4C205.867 577.8 234.133 601.8 242.533 634.6L244.933 644.067L245.333 609.4C245.733 571.267 244.533 556.867 239.6 543.933C230.267 519.267 206.533 498.867 180.8 493.4C173.867 491.933 162.133 491.533 133.6 491.533C109.6 491.667 97.3333 492.067 100.4 492.867Z" fill="#0A939688"/>
<path d="M276.267 493.533C239.467 503.667 235.067 552.333 269.6 568.467C275.333 571.133 279.067 571.933 286.4 571.933C297.6 571.933 305.867 568.467 314.267 560.067C320.4 553.933 322.4 550.6 324.933 541.4C326.667 534.867 326.667 535.267 326.8 553.667L326.933 572.733H330.667C337.2 572.733 352.4 568.867 360 565.4C369.733 561 382.133 551.4 389.2 543C396.267 534.6 403.6 519.933 406.133 508.867C407.2 504.333 408.533 500.067 408.933 499.667C409.333 499.133 409.6 511.267 409.467 526.467C409.333 541.667 409.6 554.467 410.133 555C410.533 555.4 410.933 554.333 410.933 552.6C411.067 543.267 424.267 521.667 436.267 511.133C444.133 504.2 459.333 496.2 469.6 493.533C476.267 491.8 469.867 491.533 402 491.533L326.933 491.4L326.8 510.333C326.667 524.6 326.4 528.067 325.467 524.333C322.533 511.8 314.4 501.933 302.4 496.2C293.333 491.8 285.333 491 276.267 493.533Z" fill="#0A939688"/>
<path d="M489.6 531.933V572.733L526.667 572.867C546.933 573 562.133 573.4 560.267 573.667C552.4 575 538.933 580.067 530.8 584.867C510.267 596.867 495.333 618.733 491.2 642.733L490.133 649.4L489.067 642.2C486.667 624.333 474.133 602.6 460 591.267C456.133 588.2 448.8 583.667 443.6 581.267C428.4 574.067 420.4 573.133 380.267 573.933C347.6 574.733 345.467 574.867 351.6 576.467C369.333 581.267 390.267 598.6 399.2 616.067C404.533 626.6 408.267 639.933 408.267 648.867V654.733L447.733 654.467C469.467 654.333 488.133 654.6 489.067 655C490.667 655.533 490.933 662.6 490.667 695.933L490.267 736.067L449.6 736.467L408.8 736.733L407.2 726.067C404.133 707.133 395.6 690.333 382.8 678.067C374.8 670.467 374 669.8 368.267 666.6C365.733 665.267 363.333 663.8 362.933 663.4C360.133 660.6 340.8 655.4 333.333 655.4H326.933V614.867C326.933 568.2 328.267 571.8 312.667 574.733C278 581.4 252 607.8 246.8 641.8C245.867 647.8 245.467 653 245.733 653.267C246.133 653.667 250.533 654.6 255.6 655.4C287.333 660.333 311.867 680.6 322.533 711L326.267 721.4L326.667 769L327.067 816.733H333.333C355.733 816.6 383.867 799 396.667 777C401.867 768.067 406.933 754.467 407.067 748.867C407.067 747 407.6 744.2 408.267 742.733C409.2 740.467 409.467 740.6 409.467 744.067C409.867 757.8 418.667 777.4 430.267 789.933C443.6 804.333 458.8 812.6 478.267 816.067L487.6 817.667L477.6 819.4C467.867 821 462 823 449.867 829.133C444.533 831.667 429.2 845.533 424.267 852.067C416.667 862.067 409.6 881.933 409.6 892.867C409.6 899.4 409.6 899.4 405.333 899.4C402.933 899.4 396.8 900.333 391.6 901.4C361.733 907.667 335.467 933.667 329.067 963.4C327.333 971.267 327.067 966.6 326.933 908.733C326.8 873.933 326.8 839.267 326.933 831.667L327.2 818.067H280.8C228.8 818.067 224.133 818.6 207.6 827.267C187.067 837.933 171.467 858.067 165.733 881.667L163.067 892.067L163.333 814.067L163.6 736.067L204.267 735.4L244.933 734.733L245.2 694.867L245.6 655L235.867 655.8C225.067 656.733 210.4 662.067 201.2 668.333C192.133 674.467 178.4 689.4 173.733 698.067C171.333 702.467 168 711.667 166.4 718.467L163.333 730.733L162.4 723.8C159.6 702.733 146.133 681.533 127.467 668.6C119.6 663.267 111.733 659.8 100 656.867L90.2667 654.333L126.667 654.2L162.933 654.067V614.2V574.333L119.333 573.8C73.2 573.267 64.5333 574.067 51.0667 579.267C24.8 589.8 4.66667 616.733 0.933333 647L0 654.067H40.8H81.6V686.333C81.6 704.2 81.8667 731 82.2667 746.067L83.0667 773.4L79.8667 765.267C78.1333 760.867 75.2 755.133 73.2 752.467C58.8 733.667 30.2667 731.4 13.3333 747.933C2.4 758.6 -1.6 772.6 2.26667 786.867C8.8 811 34.5333 823.8 56.4 813.8C69.8667 807.667 76.9333 799 81.3333 783.4C82.2667 780.2 82.4 798.6 81.8667 839L81.2 899.4H122.667H164.267V904.467C164.267 916.333 173.067 939 181.467 948.733C193.867 963.133 203.867 970.333 218.267 975.267C226.533 978.067 242.8 980.867 244.667 979.8C245.2 979.4 245.733 961.933 245.6 941C245.467 919.933 245.467 901.933 245.467 900.867C245.6 899.4 247.2 899.133 253.467 899.8C277.2 902.333 300.4 916.733 313.733 937.267C320.267 947.267 323.733 956.467 325.867 969.933L327.467 980.733H370.4C417.867 980.733 427.067 979.8 441.733 973C464.933 962.333 483.6 939.4 488.133 915.4C488.933 911.267 489.333 920.867 489.467 945L489.6 980.733H571.733H653.867L653.333 924.733C652.933 894.067 653.067 868.2 653.6 867.533C654 866.733 655.067 868.733 656 871.933C658.133 879.933 668.8 891.533 677.867 895.533C687.467 899.667 701.067 899.8 710.267 895.533C718.667 891.8 726.133 884.733 730.667 876.067C733.6 870.467 734.267 867.667 734.267 858.733C734.267 849.667 733.733 846.867 730.533 840.467C724.667 828.467 713.067 820.2 699.067 818.067C688.4 816.333 672.533 821.8 665.467 829.667C659.733 836.067 658.667 837.8 655.6 846.2L652.667 854.467L652.533 831C652.533 806.867 652.133 803 648.8 792.867C640.133 766.467 622 749.133 592.933 739.133L582.267 735.533L658.667 736.333L734.933 737.133V732.6C734.8 724.067 730.933 709.4 726.133 699.4C719.733 686.2 703.6 670.067 690.8 663.8C673.867 655.533 670.667 655.133 624 655.4C594.8 655.533 581.6 655.133 581.6 654.2C581.6 653.4 583.067 652.733 584.8 652.733C595.2 652.733 617.067 641.533 628.667 630.467C639.067 620.333 647.067 605.933 650.933 590.333L653.467 580.067L653.6 612.733C653.867 644.2 653.867 645.133 655.733 636.733C656.667 631.933 659.733 623.533 662.533 618.067C668.933 604.867 685.067 588.467 697.6 582.333C713.333 574.733 718.667 573.667 746.267 573.267C770.8 572.733 771.333 572.867 765.067 574.867C746.667 580.733 735.867 594.733 735.733 613.4C735.467 629.133 744.267 643.133 758.8 650.333C763.733 652.733 767.2 653.4 776.267 653.4C786.267 653.4 788.4 652.867 794.8 649.4C808.8 641.667 817.2 626.467 816 610.867C814.667 594.467 803.467 580.467 787.733 575.4L779.6 572.867H798L816.267 572.733V532.067V491.4H774C727.2 491.533 717.733 492.467 702.667 499C678 509.667 659.067 534.333 654.8 561.4C653.867 567.267 652.533 572.467 651.733 573C650.933 573.667 632.667 574.067 611.333 573.933H572.267V570.6C572.267 568.733 571.333 562.6 570.133 557C562.933 521.8 533.867 495.133 498.933 491.933L489.6 491V531.933ZM573.2 828.6C577.2 855.267 594.267 878.867 617.467 889.667C628.133 894.733 628.933 895 641.6 897.4L650.267 899L643.6 900.067C631.6 901.933 619.733 906.333 610.533 912.2C598.4 920.067 593.067 925.133 586.267 935.4C579.467 945.667 575.733 954.467 573.467 966.2L571.733 974.733L570.133 965.933C563.6 930.6 534.933 904.2 498.267 899.667L490.267 898.733L489.867 858.333L489.6 818.067H530.667H571.733L573.2 828.6Z" fill="#0A939688"/>
<path d="M592 494.067C606.133 497.8 618.8 505 628.533 514.733C638.933 525.267 645.2 535.4 649.867 549.267L653.467 560.067V525.667L653.6 491.4L618 491.533H582.267L592 494.067Z" fill="#0A939688"/>
<path d="M803.6 737.533C786.533 741.133 772.133 748.467 761.2 759.133C718.667 800.467 730.8 868.2 785.067 892.2C789.067 893.933 796.267 896.2 801.2 897.133C809.333 898.6 807.333 898.733 772.8 899.4L735.6 900.067L735.333 940.333C735.067 971.4 735.333 980.733 736.667 980.733C741.467 980.6 758.933 976.733 763.6 974.867C789.2 964.2 806.933 944.067 813.467 918.2C816.133 907.267 816.267 903.933 816.267 821.8V736.733L811.333 736.867C808.533 737 805.067 737.267 803.6 737.533Z" fill="#0A939688"/>
<path d="M0.399996 905.667L0.266663 980.733H40.9333H81.6L81.3333 939.933L80.9333 899.133L74.2667 898.6C62.8 897.667 54.8 895.533 44.4 890.467C24.8 880.867 8.13333 860.2 2.4 838.067C0.666663 831.4 0.399996 837.667 0.399996 905.667Z" fill="#0A939688"/>
<path d="M160.933 920.867C159.2 930.867 149.733 947.4 140 956.867C130.4 966.333 114.933 975.4 102.533 978.733C96.1334 980.467 97.8667 980.6 129.333 980.6L162.933 980.733V948.067C162.933 930.067 162.667 915.4 162.4 915.4C162.133 915.4 161.467 917.8 160.933 920.867Z" fill="#0A939688"/>
<path d="M916.4 493.867C950.4 501.867 978.933 534.667 978.933 565.867V573.467L986.4 574.4C1021.87 578.8 1050.13 602.8 1058.53 635.6L1060.93 645.067L1061.33 610.4C1061.73 572.267 1060.53 557.867 1055.6 544.933C1046.27 520.267 1022.53 499.867 996.8 494.4C989.867 492.933 978.133 492.533 949.6 492.533C925.6 492.667 913.333 493.067 916.4 493.867Z" fill="#0A939688"/>
<path d="M1092.27 494.533C1055.47 504.667 1051.07 553.333 1085.6 569.467C1091.33 572.133 1095.07 572.933 1102.4 572.933C1113.6 572.933 1121.87 569.467 1130.27 561.067C1136.4 554.933 1138.4 551.6 1140.93 542.4C1142.67 535.867 1142.67 536.267 1142.8 554.667L1142.93 573.733H1146.67C1153.2 573.733 1168.4 569.867 1176 566.4C1185.73 562 1198.13 552.4 1205.2 544C1212.27 535.6 1219.6 520.933 1222.13 509.867C1223.2 505.333 1224.53 501.067 1224.93 500.667C1225.33 500.133 1225.6 512.267 1225.47 527.467C1225.33 542.667 1225.6 555.467 1226.13 556C1226.53 556.4 1226.93 555.333 1226.93 553.6C1227.07 544.267 1240.27 522.667 1252.27 512.133C1260.13 505.2 1275.33 497.2 1285.6 494.533C1292.27 492.8 1285.87 492.533 1218 492.533L1142.93 492.4L1142.8 511.333C1142.67 525.6 1142.4 529.067 1141.47 525.333C1138.53 512.8 1130.4 502.933 1118.4 497.2C1109.33 492.8 1101.33 492 1092.27 494.533Z" fill="#0A939688"/>
<path d="M1305.6 532.933V573.733L1342.67 573.867C1362.93 574 1378.13 574.4 1376.27 574.667C1368.4 576 1354.93 581.067 1346.8 585.867C1326.27 597.867 1311.33 619.733 1307.2 643.733L1306.13 650.4L1305.07 643.2C1302.67 625.333 1290.13 603.6 1276 592.267C1272.13 589.2 1264.8 584.667 1259.6 582.267C1244.4 575.067 1236.4 574.133 1196.27 574.933C1163.6 575.733 1161.47 575.867 1167.6 577.467C1185.33 582.267 1206.27 599.6 1215.2 617.067C1220.53 627.6 1224.27 640.933 1224.27 649.867V655.733L1263.73 655.467C1285.47 655.333 1304.13 655.6 1305.07 656C1306.67 656.533 1306.93 663.6 1306.67 696.933L1306.27 737.067L1265.6 737.467L1224.8 737.733L1223.2 727.067C1220.13 708.133 1211.6 691.333 1198.8 679.067C1190.8 671.467 1190 670.8 1184.27 667.6C1181.73 666.267 1179.33 664.8 1178.93 664.4C1176.13 661.6 1156.8 656.4 1149.33 656.4H1142.93V615.867C1142.93 569.2 1144.27 572.8 1128.67 575.733C1094 582.4 1068 608.8 1062.8 642.8C1061.87 648.8 1061.47 654 1061.73 654.267C1062.13 654.667 1066.53 655.6 1071.6 656.4C1103.33 661.333 1127.87 681.6 1138.53 712L1142.27 722.4L1142.67 770L1143.07 817.733H1149.33C1171.73 817.6 1199.87 800 1212.67 778C1217.87 769.067 1222.93 755.467 1223.07 749.867C1223.07 748 1223.6 745.2 1224.27 743.733C1225.2 741.467 1225.47 741.6 1225.47 745.067C1225.87 758.8 1234.67 778.4 1246.27 790.933C1259.6 805.333 1274.8 813.6 1294.27 817.067L1303.6 818.667L1293.6 820.4C1283.87 822 1278 824 1265.87 830.133C1260.53 832.667 1245.2 846.533 1240.27 853.067C1232.67 863.067 1225.6 882.933 1225.6 893.867C1225.6 900.4 1225.6 900.4 1221.33 900.4C1218.93 900.4 1212.8 901.333 1207.6 902.4C1177.73 908.667 1151.47 934.667 1145.07 964.4C1143.33 972.267 1143.07 967.6 1142.93 909.733C1142.8 874.933 1142.8 840.267 1142.93 832.667L1143.2 819.067H1096.8C1044.8 819.067 1040.13 819.6 1023.6 828.267C1003.07 838.933 987.467 859.067 981.733 882.667L979.067 893.067L979.333 815.067L979.6 737.067L1020.27 736.4L1060.93 735.733L1061.2 695.867L1061.6 656L1051.87 656.8C1041.07 657.733 1026.4 663.067 1017.2 669.333C1008.13 675.467 994.4 690.4 989.733 699.067C987.333 703.467 984 712.667 982.4 719.467L979.333 731.733L978.4 724.8C975.6 703.733 962.133 682.533 943.467 669.6C935.6 664.267 927.733 660.8 916 657.867L906.267 655.333L942.667 655.2L978.933 655.067V615.2V575.333L935.333 574.8C889.2 574.267 880.533 575.067 867.067 580.267C840.8 590.8 820.667 617.733 816.933 648L816 655.067H856.8H897.6V687.333C897.6 705.2 897.867 732 898.267 747.067L899.067 774.4L895.867 766.267C894.133 761.867 891.2 756.133 889.2 753.467C874.8 734.667 846.267 732.4 829.333 748.933C818.4 759.6 814.4 773.6 818.267 787.867C824.8 812 850.533 824.8 872.4 814.8C885.867 808.667 892.933 800 897.333 784.4C898.267 781.2 898.4 799.6 897.867 840L897.2 900.4H938.667H980.267V905.467C980.267 917.333 989.067 940 997.467 949.733C1009.87 964.133 1019.87 971.333 1034.27 976.267C1042.53 979.067 1058.8 981.867 1060.67 980.8C1061.2 980.4 1061.73 962.933 1061.6 942C1061.47 920.933 1061.47 902.933 1061.47 901.867C1061.6 900.4 1063.2 900.133 1069.47 900.8C1093.2 903.333 1116.4 917.733 1129.73 938.267C1136.27 948.267 1139.73 957.467 1141.87 970.933L1143.47 981.733H1186.4C1233.87 981.733 1243.07 980.8 1257.73 974C1280.93 963.333 1299.6 940.4 1304.13 916.4C1304.93 912.267 1305.33 921.867 1305.47 946L1305.6 981.733H1387.73H1469.87L1469.33 925.733C1468.93 895.067 1469.07 869.2 1469.6 868.533C1470 867.733 1471.07 869.733 1472 872.933C1474.13 880.933 1484.8 892.533 1493.87 896.533C1503.47 900.667 1517.07 900.8 1526.27 896.533C1534.67 892.8 1542.13 885.733 1546.67 877.067C1549.6 871.467 1550.27 868.667 1550.27 859.733C1550.27 850.667 1549.73 847.867 1546.53 841.467C1540.67 829.467 1529.07 821.2 1515.07 819.067C1504.4 817.333 1488.53 822.8 1481.47 830.667C1475.73 837.067 1474.67 838.8 1471.6 847.2L1468.67 855.467L1468.53 832C1468.53 807.867 1468.13 804 1464.8 793.867C1456.13 767.467 1438 750.133 1408.93 740.133L1398.27 736.533L1474.67 737.333L1550.93 738.133V733.6C1550.8 725.067 1546.93 710.4 1542.13 700.4C1535.73 687.2 1519.6 671.067 1506.8 664.8C1489.87 656.533 1486.67 656.133 1440 656.4C1410.8 656.533 1397.6 656.133 1397.6 655.2C1397.6 654.4 1399.07 653.733 1400.8 653.733C1411.2 653.733 1433.07 642.533 1444.67 631.467C1455.07 621.333 1463.07 606.933 1466.93 591.333L1469.47 581.067L1469.6 613.733C1469.87 645.2 1469.87 646.133 1471.73 637.733C1472.67 632.933 1475.73 624.533 1478.53 619.067C1484.93 605.867 1501.07 589.467 1513.6 583.333C1529.33 575.733 1534.67 574.667 1562.27 574.267C1586.8 573.733 1587.33 573.867 1581.07 575.867C1562.67 581.733 1551.87 595.733 1551.73 614.4C1551.47 630.133 1560.27 644.133 1574.8 651.333C1579.73 653.733 1583.2 654.4 1592.27 654.4C1602.27 654.4 1604.4 653.867 1610.8 650.4C1624.8 642.667 1633.2 627.467 1632 611.867C1630.67 595.467 1619.47 581.467 1603.73 576.4L1595.6 573.867H1614L1632.27 573.733V533.067V492.4H1590C1543.2 492.533 1533.73 493.467 1518.67 500C1494 510.667 1475.07 535.333 1470.8 562.4C1469.87 568.267 1468.53 573.467 1467.73 574C1466.93 574.667 1448.67 575.067 1427.33 574.933H1388.27V571.6C1388.27 569.733 1387.33 563.6 1386.13 558C1378.93 522.8 1349.87 496.133 1314.93 492.933L1305.6 492V532.933ZM1389.2 829.6C1393.2 856.267 1410.27 879.867 1433.47 890.667C1444.13 895.733 1444.93 896 1457.6 898.4L1466.27 900L1459.6 901.067C1447.6 902.933 1435.73 907.333 1426.53 913.2C1414.4 921.067 1409.07 926.133 1402.27 936.4C1395.47 946.667 1391.73 955.467 1389.47 967.2L1387.73 975.733L1386.13 966.933C1379.6 931.6 1350.93 905.2 1314.27 900.667L1306.27 899.733L1305.87 859.333L1305.6 819.067H1346.67H1387.73L1389.2 829.6Z" fill="#0A939688"/>
<path d="M1408 495.067C1422.13 498.8 1434.8 506 1444.53 515.733C1454.93 526.267 1461.2 536.4 1465.87 550.267L1469.47 561.067V526.667L1469.6 492.4L1434 492.533H1398.27L1408 495.067Z" fill="#0A939688"/>
<path d="M1619.6 738.533C1602.53 742.133 1588.13 749.467 1577.2 760.133C1534.67 801.467 1546.8 869.2 1601.07 893.2C1605.07 894.933 1612.27 897.2 1617.2 898.133C1625.33 899.6 1623.33 899.733 1588.8 900.4L1551.6 901.067L1551.33 941.333C1551.07 972.4 1551.33 981.733 1552.67 981.733C1557.47 981.6 1574.93 977.733 1579.6 975.867C1605.2 965.2 1622.93 945.067 1629.47 919.2C1632.13 908.267 1632.27 904.933 1632.27 822.8V737.733L1627.33 737.867C1624.53 738 1621.07 738.267 1619.6 738.533Z" fill="#0A939688"/>
<path d="M816.4 906.667L816.267 981.733H856.933H897.6L897.333 940.933L896.933 900.133L890.267 899.6C878.8 898.667 870.8 896.533 860.4 891.467C840.8 881.867 824.133 861.2 818.4 839.067C816.667 832.4 816.4 838.667 816.4 906.667Z" fill="#0A939688"/>
<path d="M976.933 921.867C975.2 931.867 965.733 948.4 956 957.867C946.4 967.333 930.933 976.4 918.533 979.733C912.133 981.467 913.867 981.6 945.333 981.6L978.933 981.733V949.067C978.933 931.067 978.667 916.4 978.4 916.4C978.133 916.4 977.467 918.8 976.933 921.867Z" fill="#0A939688"/>
</g>
<defs>
<clipPath id="clip0_401_2">
<rect width="1634" height="982" fill="white"/>
</clipPath>
</defs>
</svg>
